<svg width="22" height="22" viewBox="0 0 22 22" fill="none" xmlns="http://www.w3.org/2000/svg">
<path d="M11 0C8.82441 0 6.69767 0.645139 4.88873 1.85383C3.07979 3.06253 1.66989 4.78049 0.83733 6.79048C0.00476613 8.80047 -0.21307 11.0122 0.211367 13.146C0.635804 15.2798 1.68345 17.2398 3.22183 18.7782C4.76021 20.3165 6.72022 21.3642 8.85401 21.7886C10.9878 22.2131 13.1995 21.9952 15.2095 21.1627C17.2195 20.3301 18.9375 18.9202 20.1462 17.1113C21.3549 15.3023 22 13.1756 22 11C22 9.55546 21.7155 8.12506 21.1627 6.79048C20.6099 5.4559 19.7996 4.24327 18.7782 3.22182C17.7567 2.20038 16.5441 1.39013 15.2095 0.837325C13.8749 0.284523 12.4445 0 11 0ZM11 19.8C9.25953 19.8 7.55814 19.2839 6.11099 18.3169C4.66383 17.35 3.53592 15.9756 2.86986 14.3676C2.20381 12.7596 2.02954 10.9902 2.36909 9.2832C2.70864 7.57617 3.54676 6.00816 4.77746 4.77746C6.00817 3.54676 7.57618 2.70864 9.28321 2.36909C10.9902 2.02954 12.7596 2.20381 14.3676 2.86986C15.9756 3.53591 17.35 4.66383 18.3169 6.11098C19.2839 7.55813 19.8 9.25952 19.8 11C19.8 13.3339 18.8729 15.5722 17.2225 17.2225C15.5722 18.8729 13.3339 19.8 11 19.8Z" fill="white"/>
<path d="M14.3 9.89999H12.1V7.69999C12.1 7.40826 11.9841 7.12847 11.7778 6.92218C11.5715 6.71589 11.2917 6.59999 11 6.59999C10.7082 6.59999 10.4285 6.71589 10.2222 6.92218C10.0159 7.12847 9.89998 7.40826 9.89998 7.69999V9.89999H7.69999C7.40825 9.89999 7.12846 10.0159 6.92217 10.2222C6.71588 10.4285 6.59999 10.7083 6.59999 11C6.59999 11.2917 6.71588 11.5715 6.92217 11.7778C7.12846 11.9841 7.40825 12.1 7.69999 12.1H9.89998V14.3C9.89998 14.5917 10.0159 14.8715 10.2222 15.0778C10.4285 15.2841 10.7082 15.4 11 15.4C11.2917 15.4 11.5715 15.2841 11.7778 15.0778C11.9841 14.8715 12.1 14.5917 12.1 14.3V12.1H14.3C14.5917 12.1 14.8715 11.9841 15.0778 11.7778C15.2841 11.5715 15.4 11.2917 15.4 11C15.4 10.7083 15.2841 10.4285 15.0778 10.2222C14.8715 10.0159 14.5917 9.89999 14.3 9.89999Z" fill="white"/>
</svg>
