<svg width="239" height="50" viewBox="0 0 239 50" fill="none" xmlns="http://www.w3.org/2000/svg">
<path d="M125.485 0.37332C118.147 -1.37085 110.784 3.16303 109.04 10.5C107.295 17.837 111.83 25.1987 119.168 26.9429L214.605 49.6267C221.944 51.3708 229.307 46.837 231.051 39.5C232.795 32.163 228.261 24.8013 220.923 23.0571L125.485 0.37332Z" fill="#7444AB"/>
<path d="M19.7052 18.0806L16.1762 25.6524H23.2152L19.7052 18.0806ZM0 36.2949L13.7536 10.6614H25.6378L39.3914 36.2949H28.1367L26.1147 31.9082H13.2767L11.2547 36.2949H0Z" fill="white"/>
<path d="M65.1818 24.2029V10.6232H75.1966V36.2568H63.9419L50.1692 20.5982V36.2568H40.1735V10.6232H53.9271L65.1818 24.2029Z" fill="white"/>
<path d="M81.0338 10.6232H91.0295V36.2568H81.0338V10.6232Z" fill="white"/>
<path d="M121.341 24.2029V10.6232H131.356V36.2568H120.101L106.328 20.5982V36.2568H96.3325V10.6232H110.086L121.341 24.2029Z" fill="white"/>
<path d="M152.415 9.99385C162.068 9.99385 169.908 12.8166 169.908 22.5054V24.3746C169.946 34.0634 162.048 36.8671 152.415 36.8862C142.763 36.8671 134.866 34.0634 134.904 24.3746V22.5054C134.866 12.7975 142.763 10.0129 152.415 9.99385ZM159.912 23.7452V23.1158C159.969 18.9389 156.497 18.176 152.415 18.1188C148.314 18.176 144.842 18.9389 144.899 23.1158V23.7452C144.842 27.9411 148.314 28.704 152.415 28.7612C156.497 28.704 159.969 27.9411 159.912 23.7452Z" fill="white"/>
<path d="M179.35 10.6614L187.171 28.4561L194.992 10.6614H206.247L193.104 36.2949H181.22L168.095 10.6614H179.35Z" fill="white"/>
<path d="M219.314 18.0806L215.785 25.6524H222.824L219.314 18.0806ZM199.609 36.2949L213.362 10.6614H225.246L239 36.2949H227.745L225.723 31.9082H212.885L210.863 36.2949H199.609Z" fill="white"/>
</svg>
